<?xml version="1.0" standalone="no"?>
<!DOCTYPE svg PUBLIC "-//W3C//DTD SVG 20010904//EN"
 "http://www.w3.org/TR/2001/REC-SVG-20010904/DTD/svg10.dtd">
<svg version="1.0" xmlns="http://www.w3.org/2000/svg"
 width="2831.000000pt" height="2831.000000pt" viewBox="0 0 2831.000000 2831.000000"
 preserveAspectRatio="xMidYMid meet">

<g transform="translate(0.000000,2831.000000) scale(0.100000,-0.100000)"
fill="#000000" stroke="none">
<path d="M13585 28293 c-215 -10 -474 -26 -620 -39 -2167 -183 -4231 -849
-6085 -1962 -2723 -1634 -4827 -4146 -5955 -7107 -690 -1812 -1000 -3771 -904
-5725 125 -2571 943 -5048 2372 -7177 715 -1065 1570 -2027 2550 -2871 1057
-909 2266 -1669 3547 -2229 2858 -1250 6079 -1516 9120 -753 2887 724 5486
2358 7406 4655 1061 1269 1889 2710 2447 4256 424 1173 687 2376 792 3619 35
418 40 573 40 1200 0 628 -4 746 -41 1185 -243 2928 -1398 5708 -3303 7955
-452 532 -1052 1136 -1600 1607 -987 849 -2171 1604 -3361 2141 -1644 742
-3368 1154 -5195 1242 -184 9 -1046 11 -1210 3z m1345 -1402 c775 -56 1346
-136 2020 -286 1956 -435 3805 -1345 5358 -2637 499 -416 999 -901 1422 -1382
1795 -2041 2884 -4566 3129 -7261 41 -442 46 -579 46 -1170 0 -590 -5 -726
-46 -1170 -157 -1736 -668 -3417 -1498 -4935 -1430 -2612 -3711 -4639 -6466
-5745 -2476 -993 -5244 -1180 -7849 -529 -3098 774 -5808 2704 -7569 5391
-1173 1788 -1877 3845 -2041 5963 -51 657 -51 1395 -1 2045 210 2676 1274
5235 3025 7275 307 357 730 796 1050 1090 2028 1861 4556 3008 7270 3299 231
25 532 49 760 60 228 12 1191 6 1390 -8z"/>
</g>
</svg>
