<?xml version="1.0" standalone="no"?>
<!DOCTYPE svg PUBLIC "-//W3C//DTD SVG 20010904//EN"
 "http://www.w3.org/TR/2001/REC-SVG-20010904/DTD/svg10.dtd">
<svg version="1.0" xmlns="http://www.w3.org/2000/svg"
 width="2831.000000pt" height="2831.000000pt" viewBox="0 0 2831.000000 2831.000000"
 preserveAspectRatio="xMidYMid meet">

<g transform="translate(0.000000,2831.000000) scale(0.100000,-0.100000)"
fill="#000000" stroke="none">
<path d="M13480 28290 c-2290 -120 -4408 -738 -6360 -1855 -1530 -876 -2905
-2054 -4020 -3445 -2342 -2923 -3422 -6643 -3014 -10385 139 -1278 452 -2528
932 -3725 1451 -3620 4380 -6514 8017 -7922 2154 -835 4467 -1127 6785 -857
902 105 1866 317 2730 601 705 232 1267 463 1930 794 1211 606 2299 1361 3305
2294 208 193 673 663 851 860 1230 1362 2167 2907 2794 4605 783 2122 1044
4420 759 6685 -323 2573 -1353 5007 -2978 7040 -342 428 -633 753 -1046 1166
-418 419 -754 721 -1174 1057 -1841 1472 -3984 2450 -6293 2872 -538 98 -1054
160 -1703 206 -193 14 -1299 20 -1515 9z m1245 -1390 c2167 -103 4167 -708
6015 -1817 234 -141 713 -460 935 -623 1512 -1111 2737 -2499 3644 -4130 125
-224 399 -774 498 -1000 584 -1328 930 -2678 1048 -4090 55 -667 59 -1414 9
-2055 -168 -2193 -875 -4253 -2083 -6075 -1236 -1864 -2942 -3375 -4938 -4374
-2127 -1064 -4492 -1505 -6898 -1285 -2593 236 -5081 1286 -7070 2983 -504
430 -1097 1028 -1511 1521 -830 991 -1514 2115 -2009 3304 -728 1749 -1055
3653 -954 5571 142 2725 1140 5297 2879 7420 543 663 1203 1315 1875 1854
1800 1445 3929 2365 6205 2685 398 56 794 92 1275 114 163 8 895 6 1080 -3z"/>
<path d="M7957 22963 c-4 -3 -7 -622 -7 -1375 l0 -1368 3994 -2 3995 -3 -3945
-7345 c-2170 -4040 -3967 -7387 -3995 -7438 l-50 -92 6201 0 6200 0 0 1380 0
1380 -3986 0 c-3302 0 -3985 2 -3981 13 3 8 1796 3351 3986 7430 2190 4079
3981 7419 3981 7422 0 8 -12386 6 -12393 -2z"/>
</g>
</svg>
